<?xml version="1.0" encoding="UTF-8"?>
<svg xmlns="http://www.w3.org/2000/svg" xmlns:xlink="http://www.w3.org/1999/xlink" width="245px" height="31px" viewBox="0 0 246 31" version="1.1">
<g id="surface1">
<path style=" stroke:none;fill-rule:evenodd;fill:rgb(21.960784%,74.117649%,97.254902%);fill-opacity:1;" d="M 25.351562 0 C 18.589844 0 14.367188 3.382812 12.675781 10.144531 C 15.210938 6.761719 18.167969 5.496094 21.546875 6.339844 C 23.476562 6.824219 24.855469 8.222656 26.382812 9.773438 C 28.867188 12.296875 31.742188 15.21875 38.027344 15.21875 C 44.785156 15.21875 49.011719 11.835938 50.703125 5.074219 C 48.167969 8.453125 45.210938 9.722656 41.828125 8.878906 C 39.902344 8.394531 38.523438 6.996094 36.996094 5.445312 C 34.511719 2.921875 31.632812 0 25.351562 0 Z M 12.675781 15.21875 C 5.914062 15.21875 1.691406 18.601562 0 25.363281 C 2.535156 21.980469 5.492188 20.714844 8.871094 21.558594 C 10.800781 22.042969 12.179688 23.441406 13.707031 24.992188 C 16.191406 27.515625 19.066406 30.4375 25.351562 30.4375 C 32.113281 30.4375 36.335938 27.054688 38.027344 20.289062 C 35.492188 23.671875 32.535156 24.941406 29.152344 24.09375 C 27.226562 23.613281 25.847656 22.214844 24.320312 20.664062 C 21.835938 18.140625 18.957031 15.21875 12.675781 15.21875 Z M 12.675781 15.21875 "/>
<path style=" stroke:none;fill-rule:evenodd;fill:rgb(100%,100%,100%);fill-opacity:1;" d="M 76.050781 12.824219 L 71.625 12.824219 L 71.625 21.390625 C 71.625 23.675781 73.125 23.640625 76.050781 23.496094 L 76.050781 26.960938 C 70.125 27.675781 67.773438 26.03125 67.773438 21.390625 L 67.773438 12.824219 L 64.488281 12.824219 L 64.488281 9.113281 L 67.773438 9.113281 L 67.773438 4.316406 L 71.625 3.175781 L 71.625 9.113281 L 76.050781 9.113281 Z M 92.914062 9.113281 L 96.769531 9.113281 L 96.769531 26.960938 L 92.914062 26.960938 L 92.914062 24.390625 C 91.558594 26.28125 89.453125 27.425781 86.671875 27.425781 C 81.820312 27.425781 77.785156 23.320312 77.785156 18.035156 C 77.785156 12.71875 81.820312 8.648438 86.671875 8.648438 C 89.453125 8.648438 91.558594 9.789062 92.914062 11.648438 Z M 87.277344 23.746094 C 90.488281 23.746094 92.914062 21.355469 92.914062 18.035156 C 92.914062 14.714844 90.488281 12.324219 87.277344 12.324219 C 84.066406 12.324219 81.640625 14.714844 81.640625 18.035156 C 81.640625 21.355469 84.066406 23.746094 87.277344 23.746094 Z M 103.191406 6.433594 C 101.835938 6.433594 100.730469 5.292969 100.730469 3.972656 C 100.730469 3.320312 100.988281 2.691406 101.449219 2.230469 C 101.914062 1.769531 102.539062 1.511719 103.191406 1.507812 C 103.84375 1.511719 104.46875 1.769531 104.929688 2.230469 C 105.390625 2.691406 105.652344 3.320312 105.652344 3.972656 C 105.652344 5.292969 104.546875 6.433594 103.191406 6.433594 Z M 101.265625 26.960938 L 101.265625 9.113281 L 105.117188 9.113281 L 105.117188 26.960938 Z M 109.578125 26.960938 L 109.578125 0.902344 L 113.429688 0.902344 L 113.429688 26.960938 Z M 138.441406 9.113281 L 142.507812 9.113281 L 136.90625 26.960938 L 133.125 26.960938 L 129.414062 14.929688 L 125.667969 26.960938 L 121.886719 26.960938 L 116.285156 9.113281 L 120.351562 9.113281 L 123.8125 21.425781 L 127.558594 9.113281 L 131.234375 9.113281 L 134.945312 21.425781 Z M 147.289062 6.433594 C 145.933594 6.433594 144.828125 5.292969 144.828125 3.972656 C 144.828125 3.320312 145.089844 2.691406 145.550781 2.230469 C 146.011719 1.769531 146.636719 1.511719 147.289062 1.507812 C 147.941406 1.511719 148.566406 1.769531 149.03125 2.230469 C 149.492188 2.691406 149.75 3.320312 149.753906 3.972656 C 149.753906 5.292969 148.644531 6.433594 147.289062 6.433594 Z M 145.363281 26.960938 L 145.363281 9.113281 L 149.21875 9.113281 L 149.21875 26.960938 Z M 163.058594 8.648438 C 167.054688 8.648438 169.910156 11.359375 169.910156 16 L 169.910156 26.960938 L 166.058594 26.960938 L 166.058594 16.394531 C 166.058594 13.679688 164.488281 12.253906 162.0625 12.253906 C 159.527344 12.253906 157.53125 13.753906 157.53125 17.394531 L 157.53125 26.960938 L 153.675781 26.960938 L 153.675781 9.113281 L 157.53125 9.113281 L 157.53125 11.398438 C 158.707031 9.539062 160.632812 8.648438 163.058594 8.648438 Z M 188.179688 1.972656 L 192.03125 1.972656 L 192.03125 26.960938 L 188.179688 26.960938 L 188.179688 24.390625 C 186.824219 26.28125 184.71875 27.425781 181.933594 27.425781 C 177.082031 27.425781 173.050781 23.320312 173.050781 18.035156 C 173.050781 12.71875 177.082031 8.648438 181.933594 8.648438 C 184.71875 8.648438 186.824219 9.789062 188.179688 11.648438 Z M 182.542969 23.746094 C 185.753906 23.746094 188.179688 21.355469 188.179688 18.035156 C 188.179688 14.714844 185.753906 12.324219 182.542969 12.324219 C 179.332031 12.324219 176.902344 14.714844 176.902344 18.035156 C 176.902344 21.355469 179.332031 23.746094 182.542969 23.746094 Z M 204.949219 27.425781 C 199.558594 27.425781 195.527344 23.320312 195.527344 18.035156 C 195.527344 12.71875 199.558594 8.648438 204.949219 8.648438 C 208.445312 8.648438 211.476562 10.46875 212.90625 13.253906 L 209.585938 15.179688 C 208.800781 13.503906 207.054688 12.433594 204.914062 12.433594 C 201.773438 12.433594 199.382812 14.824219 199.382812 18.035156 C 199.382812 21.25 201.773438 23.640625 204.914062 23.640625 C 207.054688 23.640625 208.800781 22.535156 209.65625 20.890625 L 212.976562 22.785156 C 211.476562 25.605469 208.445312 27.425781 204.949219 27.425781 Z M 219.328125 14.039062 C 219.328125 17.285156 228.925781 15.324219 228.925781 21.925781 C 228.925781 25.496094 225.820312 27.425781 221.96875 27.425781 C 218.398438 27.425781 215.832031 25.816406 214.6875 23.25 L 218.007812 21.320312 C 218.578125 22.925781 220.003906 23.890625 221.96875 23.890625 C 223.679688 23.890625 225 23.320312 225 21.890625 C 225 18.714844 215.402344 20.5 215.402344 14.109375 C 215.402344 10.753906 218.292969 8.648438 221.929688 8.648438 C 224.855469 8.648438 227.285156 10.003906 228.53125 12.359375 L 225.285156 14.179688 C 224.644531 12.789062 223.394531 12.144531 221.929688 12.144531 C 220.539062 12.144531 219.328125 12.753906 219.328125 14.039062 Z M 235.773438 14.039062 C 235.773438 17.285156 245.371094 15.324219 245.371094 21.925781 C 245.371094 25.496094 242.269531 27.425781 238.414062 27.425781 C 234.847656 27.425781 232.277344 25.816406 231.136719 23.25 L 234.453125 21.320312 C 235.027344 22.925781 236.453125 23.890625 238.414062 23.890625 C 240.128906 23.890625 241.449219 23.320312 241.449219 21.890625 C 241.449219 18.714844 231.851562 20.5 231.851562 14.109375 C 231.851562 10.753906 234.742188 8.648438 238.378906 8.648438 C 241.304688 8.648438 243.730469 10.003906 244.980469 12.359375 L 241.734375 14.179688 C 241.089844 12.789062 239.84375 12.144531 238.378906 12.144531 C 236.988281 12.144531 235.773438 12.753906 235.773438 14.039062 Z M 235.773438 14.039062 "/>
</g>
</svg>
