<?xml version="1.0" encoding="UTF-8"?>
<svg xmlns="http://www.w3.org/2000/svg" xmlns:xlink="http://www.w3.org/1999/xlink" width="50px" height="50px" viewBox="0 0 50 50" version="1.1">
<g id="surface1">
<path style=" stroke:none;fill-rule:nonzero;fill:rgb(8.235294%,44.705883%,71.372551%);fill-opacity:1;" d="M 7.347656 44.578125 L 3.421875 0.527344 L 46.578125 0.527344 L 42.648438 44.574219 L 24.972656 49.472656 Z M 7.347656 44.578125 "/>
<path style=" stroke:none;fill-rule:nonzero;fill:rgb(20%,66.274512%,86.274511%);fill-opacity:1;" d="M 25 45.726562 L 39.28125 41.769531 L 42.640625 4.128906 L 25 4.128906 Z M 25 45.726562 "/>
<path style=" stroke:none;fill-rule:nonzero;fill:rgb(100%,100%,100%);fill-opacity:1;" d="M 25 20.089844 L 32.148438 20.089844 L 32.644531 14.558594 L 25 14.558594 L 25 9.15625 L 38.546875 9.15625 L 38.417969 10.605469 L 37.089844 25.492188 L 25 25.492188 Z M 25 20.089844 "/>
<path style=" stroke:none;fill-rule:nonzero;fill:rgb(92.156863%,92.156863%,92.156863%);fill-opacity:1;" d="M 25.03125 34.121094 L 25.007812 34.128906 L 18.992188 32.503906 L 18.605469 28.195312 L 13.183594 28.195312 L 13.941406 36.675781 L 25.007812 39.75 L 25.03125 39.742188 Z M 25.03125 34.121094 "/>
<path style=" stroke:none;fill-rule:nonzero;fill:rgb(100%,100%,100%);fill-opacity:1;" d="M 31.691406 25.261719 L 31.039062 32.5 L 25.015625 34.125 L 25.015625 39.746094 L 36.089844 36.675781 L 36.171875 35.765625 L 37.109375 25.261719 Z M 31.691406 25.261719 "/>
<path style=" stroke:none;fill-rule:nonzero;fill:rgb(92.156863%,92.156863%,92.156863%);fill-opacity:1;" d="M 25.019531 9.15625 L 25.019531 14.558594 L 11.96875 14.558594 L 11.859375 13.34375 L 11.613281 10.605469 L 11.484375 9.15625 Z M 25 20.089844 L 25 25.492188 L 19.058594 25.492188 L 18.953125 24.277344 L 18.703125 21.539062 L 18.574219 20.089844 Z M 25 20.089844 "/>
</g>
</svg>
