<svg xmlns="http://www.w3.org/2000/svg" viewBox="0 0 1280 800" role="img" aria-label="Project preview coming soon">
  <defs>
    <linearGradient id="bg" x1="0" y1="0" x2="1" y2="1">
      <stop offset="0" stop-color="#1a212b"/>
      <stop offset="1" stop-color="#0f131a"/>
    </linearGradient>
  </defs>
  <rect width="1280" height="800" fill="url(#bg)"/>
  <g stroke="#313b48" stroke-width="1" opacity="0.5">
    <line x1="0" y1="200" x2="1280" y2="200"/>
    <line x1="0" y1="400" x2="1280" y2="400"/>
    <line x1="0" y1="600" x2="1280" y2="600"/>
    <line x1="320" y1="0" x2="320" y2="800"/>
    <line x1="640" y1="0" x2="640" y2="800"/>
    <line x1="960" y1="0" x2="960" y2="800"/>
  </g>
  <g stroke="#3c6fa6" stroke-width="2" opacity="0.55">
    <line x1="440" y1="300" x2="640" y2="400"/>
    <line x1="640" y1="400" x2="860" y2="320"/>
    <line x1="640" y1="400" x2="760" y2="540"/>
    <line x1="640" y1="400" x2="500" y2="520"/>
  </g>
  <g fill="#3c6fa6">
    <circle cx="440" cy="300" r="7"/>
    <circle cx="860" cy="320" r="7"/>
    <circle cx="760" cy="540" r="7"/>
    <circle cx="500" cy="520" r="7"/>
  </g>
  <circle cx="640" cy="400" r="88" fill="none" stroke="#e6b85c" stroke-width="2" opacity="0.5"/>
  <circle cx="640" cy="400" r="12" fill="#e6b85c"/>
  <text x="640" y="690" text-anchor="middle" font-family="ui-monospace, SFMono-Regular, Menlo, monospace" font-size="26" fill="#93a1b2">$ preview --coming-soon</text>
</svg>
