<svg width="153" height="96" viewBox="0 0 153 96" fill="none" xmlns="http://www.w3.org/2000/svg">
<path d="M86.5262 42.1116L23.399 87.4546C17.3652 91.7868 9.04454 90.9611 3.97366 85.5277C-2.8683 78.1934 -0.567855 66.3238 8.51808 62.0876L87.6052 25.2009C91.8907 23.2003 96.9351 23.7246 100.724 26.5596L104.56 29.4267C107.773 31.8284 112.068 32.2146 115.651 30.4181L138.184 19.1327C143.418 16.5106 149.783 18.8112 152.134 24.1709C154.641 29.8868 151.487 36.4878 145.466 38.129L113.978 46.6982C111.193 47.4554 108.212 46.8876 105.895 45.1586L102.031 42.268C97.4456 38.8385 91.1688 38.777 86.5252 42.1152L86.5262 42.1116Z" fill="#3183E8"/>
<path d="M77.8676 9.22633L47.412 7.66757C39.7768 7.27705 33.9732 14.4205 35.9225 21.8093C37.5898 28.1365 44.2692 31.7311 50.4671 29.6346L79.347 19.8827C82.6224 18.7777 84.0627 14.9534 82.3325 11.9598C81.4029 10.3514 79.7207 9.32276 77.8639 9.22534L77.8676 9.22633Z" fill="#3183E8"/>
<path d="M102.274 48.6885L108.759 62.7025C111.757 69.1825 109.564 76.8743 103.605 80.7982L84.0867 93.6388C77.9612 97.6675 69.778 96.4309 65.1142 90.7689C58.5425 82.7922 62.3016 70.7011 72.2348 67.8666L89.3478 62.983C93.2587 61.8678 95.4376 57.7074 94.133 53.8577L93.5603 52.1644C92.6528 49.4896 94.2956 46.627 97.0648 46.0618C99.202 45.6256 101.356 46.7139 102.272 48.6958L102.274 48.6885Z" fill="#3183E8"/>
<path d="M107.137 23.4995C113.517 25.211 120.073 21.43 121.779 15.0545C123.486 8.67893 119.697 2.12313 113.317 0.411668C106.936 -1.29979 100.381 2.48119 98.6741 8.85673C96.9676 15.2323 100.757 21.7881 107.137 23.4995Z" fill="#3183E8"/>
</svg>
